TITLE ""
FILE "1Q_t_0169-0177.mp3" MP3
  TRACK 01 AUDIO
    TITLE "1Q_t_0169-0177_01"
    INDEX 01 00:00:00
  TRACK 02 AUDIO
    TITLE "1Q_t_0169-0177_02"
    INDEX 01 00:01:04
  TRACK 03 AUDIO
    TITLE "1Q_t_0169-0177_03"
    INDEX 01 00:01:22
  TRACK 04 AUDIO
    TITLE "1Q_t_0169-0177_04"
    INDEX 01 00:02:21
  TRACK 05 AUDIO
    TITLE "1Q_t_0169-0177_05"
    INDEX 01 00:02:37
  TRACK 06 AUDIO
    TITLE "1Q_t_0169-0177_06"
    INDEX 01 00:09:66
  TRACK 07 AUDIO
    TITLE "1Q_t_0169-0177_07"
    INDEX 01 00:10:46
  TRACK 08 AUDIO
    TITLE "1Q_t_0169-0177_08"
    INDEX 01 00:11:45
  TRACK 09 AUDIO
    TITLE "1Q_t_0169-0177_09"
    INDEX 01 00:11:63
  TRACK 10 AUDIO
    TITLE "1Q_t_0169-0177_10"
    INDEX 01 00:14:20
  TRACK 11 AUDIO
    TITLE "1Q_t_0169-0177_11"
    INDEX 01 00:14:36
  TRACK 12 AUDIO
    TITLE "1Q_t_0169-0177_12"
    INDEX 01 00:19:55
  TRACK 13 AUDIO
    TITLE "1Q_t_0169-0177_13"
    INDEX 01 00:20:37
  TRACK 14 AUDIO
    TITLE "1Q_t_0169-0177_14"
    INDEX 01 00:21:65
  TRACK 15 AUDIO
    TITLE "1Q_t_0169-0177_15"
    INDEX 01 00:22:06
  TRACK 16 AUDIO
    TITLE "1Q_t_0169-0177_16"
    INDEX 01 00:23:54
  TRACK 17 AUDIO
    TITLE "1Q_t_0169-0177_17"
    INDEX 01 00:23:70
  TRACK 18 AUDIO
    TITLE "1Q_t_0169-0177_18"
    INDEX 01 00:30:37
  TRACK 19 AUDIO
    TITLE "1Q_t_0169-0177_19"
    INDEX 01 00:31:19
  TRACK 20 AUDIO
    TITLE "1Q_t_0169-0177_20"
    INDEX 01 00:32:38
  TRACK 21 AUDIO
    TITLE "1Q_t_0169-0177_21"
    INDEX 01 00:33:14
  TRACK 22 AUDIO
    TITLE "1Q_t_0169-0177_22"
    INDEX 01 00:34:29
  TRACK 23 AUDIO
    TITLE "1Q_t_0169-0177_23"
    INDEX 01 00:34:44
  TRACK 24 AUDIO
    TITLE "1Q_t_0169-0177_24"
    INDEX 01 00:37:25
  TRACK 25 AUDIO
    TITLE "1Q_t_0169-0177_25"
    INDEX 01 00:37:47
  TRACK 26 AUDIO
    TITLE "1Q_t_0169-0177_26"
    INDEX 01 00:42:67
  TRACK 27 AUDIO
    TITLE "1Q_t_0169-0177_27"
    INDEX 01 00:43:43
  TRACK 28 AUDIO
    TITLE "1Q_t_0169-0177_28"
    INDEX 01 00:44:72
  TRACK 29 AUDIO
    TITLE "1Q_t_0169-0177_29"
    INDEX 01 00:45:17
  TRACK 30 AUDIO
    TITLE "1Q_t_0169-0177_30"
    INDEX 01 00:47:55
  TRACK 31 AUDIO
    TITLE "1Q_t_0169-0177_31"
    INDEX 01 00:47:71
  TRACK 32 AUDIO
    TITLE "1Q_t_0169-0177_32"
    INDEX 01 00:53:07
  TRACK 33 AUDIO
    TITLE "1Q_t_0169-0177_33"
    INDEX 01 00:53:59
  TRACK 34 AUDIO
    TITLE "1Q_t_0169-0177_34"
    INDEX 01 00:54:61
  TRACK 35 AUDIO
    TITLE "1Q_t_0169-0177_35"
    INDEX 01 00:55:03
  TRACK 36 AUDIO
    TITLE "1Q_t_0169-0177_36"
    INDEX 01 00:57:47
  TRACK 37 AUDIO
    TITLE "1Q_t_0169-0177_37"
    INDEX 01 00:57:65
  TRACK 38 AUDIO
    TITLE "1Q_t_0169-0177_38"
    INDEX 01 01:02:29
  TRACK 39 AUDIO
    TITLE "1Q_t_0169-0177_39"
    INDEX 01 01:03:07
  TRACK 40 AUDIO
    TITLE "1Q_t_0169-0177_40"
    INDEX 01 01:04:28
  TRACK 41 AUDIO
    TITLE "1Q_t_0169-0177_41"
    INDEX 01 01:04:44
  TRACK 42 AUDIO
    TITLE "1Q_t_0169-0177_42"
    INDEX 01 01:08:55
  TRACK 43 AUDIO
    TITLE "1Q_t_0169-0177_43"
    INDEX 01 01:08:71
  TRACK 44 AUDIO
    TITLE "1Q_t_0169-0177_44"
    INDEX 01 01:13:33
  TRACK 45 AUDIO
    TITLE "1Q_t_0169-0177_45"
    INDEX 01 01:14:13
  TRACK 46 AUDIO
    TITLE "1Q_t_0169-0177_46"
    INDEX 01 01:15:24
  TRACK 47 AUDIO
    TITLE "1Q_t_0169-0177_47"
    INDEX 01 01:15:39
  TRACK 48 AUDIO
    TITLE "1Q_t_0169-0177_48"
    INDEX 01 01:16:72
  TRACK 49 AUDIO
    TITLE "1Q_t_0169-0177_49"
    INDEX 01 01:17:13
  TRACK 50 AUDIO
    TITLE "1Q_t_0169-0177_50"
    INDEX 01 01:23:72
  TRACK 51 AUDIO
    TITLE "1Q_t_0169-0177_51"
    INDEX 01 01:24:50
  TRACK 52 AUDIO
    TITLE "1Q_t_0169-0177_52"
    INDEX 01 01:25:71
  TRACK 53 AUDIO
    TITLE "1Q_t_0169-0177_53"
    INDEX 01 01:26:14
  TRACK 54 AUDIO
    TITLE "1Q_t_0169-0177_54"
    INDEX 01 01:28:26
  TRACK 55 AUDIO
    TITLE "1Q_t_0169-0177_55"
    INDEX 01 01:28:40
  TRACK 56 AUDIO
    TITLE "1Q_t_0169-0177_56"
    INDEX 01 01:35:58
